<svg xmlns="http://www.w3.org/2000/svg" version="1.1" xmlns:xlink="http://www.w3.org/1999/xlink" xmlns:svgjs="http://svgjs.com/svgjs" width="512" height="512" x="0" y="0" viewBox="0 0 512 512" style="enable-background:new 0 0 512 512" xml:space="preserve" class=""><g><g fill-rule="evenodd" clip-rule="evenodd"><path fill="#1fdf64" d="M256 512c141 0 256-115 256-256S397 0 256 0 0 115 0 256s115 256 256 256z" data-original="#ef5350" class=""></path><path fill="#000000" d="M228.4 155.9v200.3c0 21.5-17.6 39.2-39.2 39.2S150 377.8 150 356.2V155.9c0-21.6 17.6-39.2 39.2-39.2 21.6-.1 39.2 17.6 39.2 39.2zm94.4-39.3c-21.6 0-39.2 17.6-39.2 39.2v200.3c0 21.5 17.6 39.2 39.2 39.2 21.5 0 39.2-17.6 39.2-39.2V155.9c0-21.6-17.7-39.3-39.2-39.3z" data-original="#ffffff" class=""></path></g></g></svg>