<svg xmlns="http://www.w3.org/2000/svg" version="1.1" xmlns:xlink="http://www.w3.org/1999/xlink" xmlns:svgjs="http://svgjs.com/svgjs" width="512" height="512" x="0" y="0" viewBox="0 0 496.158 496.158" style="enable-background:new 0 0 512 512" xml:space="preserve" class=""><g><path d="M496.158 248.085C496.158 111.064 385.088.003 248.082.003 111.07.002 0 111.062 0 248.085c0 137.002 111.07 248.071 248.083 248.071 137.005-.001 248.075-111.07 248.075-248.071z" style="" fill="#1fdf64" data-original="#32bea6"></path><path d="M370.805 235.242 195.856 127.818c-4.776-2.934-11.061-3.061-15.951-.322a15.784 15.784 0 0 0-8.071 13.762v214a15.794 15.794 0 0 0 8.046 13.752 15.824 15.824 0 0 0 7.725 2.02c2.897 0 5.734-.797 8.205-2.303l174.947-106.576c4.657-2.836 7.556-7.986 7.565-13.44.01-5.453-2.87-10.615-7.517-13.469z" style="" fill="#000000" data-original="#ffffff" class=""></path></g></svg>